Coordinates
version=1
nRows=54
nColumns=12
inDegrees=yes

Units are S.I. units (second, meters, Newtons, ...)
Angles are in degrees

endheader
time	SC_y	SC_z	SC_x	AC_y	AC_z	AC_x	GH_y	GH_z	GH_yy	EL_x	PS_y
       0.0              -53.18          31.89          2.636          46.24         -11.59           10.6          113.4          37.04          100.9          11.07          16.06
    0.0347              -53.17          31.88          2.636          46.24         -11.59           10.6          113.4          37.04          100.9          11.07          16.06
   0.06941              -53.16          31.88          2.637          46.24         -11.59          10.59          113.3          37.04          100.9          11.08          16.07
    0.1041              -53.16          31.87          2.637          46.24         -11.58          10.59          113.3          37.04          100.9          11.08          16.09
    0.1388              -53.15          31.86          2.637          46.23         -11.58          10.59          113.2          37.04          100.9          11.09           16.1
    0.1735              -53.14          31.86          2.637          46.23         -11.58          10.58          113.2          37.05          100.9          11.09          16.11
    0.2082              -53.13          31.85          2.638          46.23         -11.57          10.58          113.1          37.05          100.9           11.1          16.12
    0.2429              -53.13          31.84          2.638          46.23         -11.57          10.57          113.1          37.05          100.9           11.1          16.14
    0.2776              -53.12          31.83          2.638          46.22         -11.56          10.57          113.0          37.06          101.0          11.11          16.15
    0.3123              -53.11          31.82          2.639          46.22         -11.56          10.57          112.9          37.06          101.0          11.12          16.17
     0.347               -53.1          31.82          2.639          46.22         -11.56          10.56          112.9          37.06          101.0          11.12          16.18
    0.3818              -53.08           31.8          2.639          46.21         -11.55          10.55          112.8          37.07          101.0          11.13           16.2
    0.4165              -53.07          31.79           2.64          46.21         -11.54          10.55          112.7          37.07          101.0          11.14          16.22
    0.4512              -53.06          31.78           2.64          46.21         -11.54          10.54          112.6          37.08          101.0          11.15          16.24
    0.4859              -53.04          31.77          2.641           46.2         -11.53          10.53          112.5          37.08          101.1          11.16          16.27
    0.5206              -53.03          31.75          2.641           46.2         -11.53          10.53          112.4          37.09          101.1          11.17          16.29
    0.5553              -53.01          31.74          2.642          46.19         -11.52          10.52          112.3          37.09          101.1          11.18          16.32
      0.59              -52.99          31.72          2.642          46.19         -11.51          10.51          112.2           37.1          101.1          11.19          16.35
    0.6247              -52.97           31.7          2.643          46.18          -11.5           10.5          112.0          37.11          101.2          11.21          16.38
    0.6594              -52.95          31.68          2.644          46.17         -11.49          10.49          111.9          37.12          101.2          11.22          16.42
    0.6941              -52.92          31.66          2.644          46.16         -11.48          10.48          111.7          37.12          101.2          11.24          16.46
    0.7288               -52.9          31.64          2.645          46.16         -11.47          10.46          111.6          37.13          101.3          11.25           16.5
    0.7635              -52.87          31.61          2.646          46.15         -11.46          10.45          111.4          37.15          101.3          11.27          16.55
    0.7982              -52.83          31.58          2.647          46.14         -11.44          10.43          111.2          37.16          101.4           11.3           16.6
    0.8329               -52.8          31.55          2.649          46.12         -11.42          10.41          110.9          37.17          101.4          11.32          16.66
    0.8676              -52.76          31.51           2.65          46.11         -11.41          10.39          110.6          37.18          101.5          11.35          16.73
    0.9023              -52.71          31.47          2.651           46.1         -11.39          10.37          110.3           37.2          101.5          11.38           16.8
     0.937              -52.66          31.42          2.653          46.08         -11.36          10.34          110.0          37.22          101.6          11.41          16.89
    0.9717               -52.6          31.37          2.655          46.06         -11.34          10.32          109.6          37.24          101.7          11.45          16.98
     1.006              -52.53          31.31          2.657          46.04         -11.31          10.28          109.2          37.26          101.8           11.5          17.09
     1.041              -52.46          31.24           2.66          46.02         -11.28          10.25          108.7          37.29          101.9          11.55          17.21
     1.076              -52.37          31.17          2.663          45.99         -11.24           10.2          108.1          37.32          102.0           11.6          17.35
     1.111              -52.27          31.08          2.666          45.96         -11.19          10.15          107.5          37.36          102.2          11.67          17.51
     1.145              -52.15          30.97           2.67          45.92         -11.14           10.1          106.7           37.4          102.3          11.75          17.69
      1.18              -52.02          30.85          2.674          45.88         -11.08          10.03          105.8          37.45          102.5          11.84          17.91
     1.215              -51.86           30.7          2.679          45.83         -11.01          9.948          104.8           37.5          102.8          11.94          18.17
     1.249              -51.67          30.53          2.686          45.77         -10.93          9.854          103.5          37.57          103.0          12.07          18.48
     1.284              -51.44          30.33          2.693           45.7         -10.83          9.741          102.0          37.65          103.4          12.22          18.85
     1.319              -51.16          30.08          2.702          45.61         -10.71          9.604          100.2          37.75          103.8          12.41          19.29
     1.353              -50.82          29.78          2.713          45.51         -10.56          9.436          97.97          37.87          104.2          12.63          19.83
     1.388               -50.4           29.4          2.727          45.38         -10.37           9.23          95.24          38.02          104.8          12.91           20.5
     1.423              -49.88          28.93          2.744          45.21         -10.15          8.972          91.83          38.21          105.6          13.25          21.34
     1.458              -49.22          28.34          2.765          45.01         -9.858          8.648          87.53          38.44          106.5          13.69          22.39
     1.492              -48.39           27.6          2.793          44.75         -9.491          8.236          82.07          38.74          107.7          14.24          23.73
     1.527              -47.32          26.64          2.827          44.41         -9.023          7.708          75.08          39.12          109.2          14.95          25.45
     1.562              -45.95          25.41          2.872          43.98         -8.421          7.031           66.1          39.61          111.2          15.86          27.65
     1.596               -44.2          23.84          2.929          43.44         -7.653          6.165          54.64          40.23          113.7          17.02          30.45
     1.631               -42.0          21.86          3.001          42.75         -6.687          5.078          40.23          41.01          116.9          18.48          33.99
     1.666              -39.31          19.46          3.089          41.91          -5.51          3.752          22.67          41.97          120.7          20.26          38.29
     1.701               -36.2          16.67           3.19          40.93         -4.145          2.215          2.316          43.07          125.1          22.32          43.28
     1.735              -32.84          13.65            3.3          39.88         -2.668         0.5516         -19.72          44.27          130.0          24.55          48.68
      1.77              -29.47          10.63           3.41          38.83          -1.19         -1.112         -41.77          45.47          134.8          26.79          54.09
     1.805              -26.36          7.842          3.512          37.86         0.1741         -2.649         -62.12          46.58          139.2          28.85          59.08
     1.839              -23.67          5.436            3.6          37.02          1.351         -3.974         -79.68          47.53          143.1          30.63          63.38
